<svg xmlns="http://www.w3.org/2000/svg" viewBox="0 0 34.98 36.34" fill="none" aria-hidden="true">
<g transform="translate(-1424.49,-147.04)">
<path d="M1434.44,170.63 C1433.71,170.63 1433.12,170.04 1433.12,169.32 C1433.12,168.59 1433.71,168 1434.44,168 C1435.16,168 1435.75,168.59 1435.75,169.32 C1435.75,170.04 1435.16,170.63 1434.44,170.63 M1436.59,171.92 C1436.7,171.92 1436.82,171.88 1436.91,171.79 C1437.08,171.61 1437.08,171.32 1436.91,171.15 L1436.29,170.53 C1436.44,170.3 1436.55,170.04 1436.61,169.77 L1437.48,169.77 C1437.73,169.77 1437.93,169.56 1437.93,169.31 C1437.93,169.07 1437.73,168.86 1437.48,168.86 L1436.61,168.86 C1436.55,168.59 1436.44,168.33 1436.29,168.1 L1436.91,167.48 C1437.08,167.31 1437.08,167.02 1436.91,166.84 C1436.73,166.67 1436.44,166.67 1436.27,166.84 L1435.65,167.46 C1435.42,167.31 1435.16,167.2 1434.89,167.14 L1434.89,166.27 C1434.89,166.02 1434.68,165.82 1434.43,165.82 C1434.18,165.82 1433.98,166.02 1433.98,166.27 L1433.98,167.14 C1433.7,167.2 1433.45,167.31 1433.22,167.46 L1432.6,166.84 C1432.42,166.67 1432.14,166.67 1431.96,166.84 C1431.79,167.02 1431.79,167.31 1431.96,167.48 L1432.58,168.1 C1432.43,168.33 1432.32,168.59 1432.26,168.86 L1431.39,168.86 C1431.14,168.86 1430.94,169.07 1430.94,169.32 C1430.94,169.57 1431.14,169.77 1431.39,169.77 L1432.26,169.77 C1432.32,170.04 1432.43,170.3 1432.58,170.53 L1431.96,171.15 C1431.79,171.32 1431.79,171.61 1431.96,171.79 C1432.05,171.88 1432.17,171.92 1432.28,171.92 C1432.4,171.92 1432.51,171.88 1432.6,171.79 L1433.22,171.17 C1433.45,171.32 1433.7,171.43 1433.98,171.49 L1433.98,172.36 C1433.98,172.61 1434.18,172.81 1434.43,172.81 C1434.68,172.81 1434.89,172.61 1434.89,172.36 L1434.89,171.49 C1435.16,171.43 1435.42,171.32 1435.65,171.17 L1436.27,171.79 C1436.36,171.88 1436.47,171.92 1436.59,171.92 M1450.78,164.42 C1450.46,164.42 1450.21,164.16 1450.21,163.85 C1450.21,163.53 1450.46,163.28 1450.78,163.28 C1451.09,163.28 1451.35,163.53 1451.35,163.85 C1451.35,164.16 1451.09,164.42 1450.78,164.42 M1453.56,163.4 L1452.19,163.4 C1451.99,162.8 1451.44,162.37 1450.78,162.37 C1450.12,162.37 1449.57,162.8 1449.37,163.4 L1444.11,163.4 C1443.86,163.4 1443.66,163.6 1443.66,163.85 C1443.66,164.1 1443.86,164.3 1444.11,164.3 L1449.37,164.3 C1449.57,164.89 1450.12,165.32 1450.78,165.32 C1451.44,165.32 1451.99,164.89 1452.19,164.3 L1453.56,164.3 C1453.81,164.3 1454.02,164.1 1454.02,163.85 C1454.02,163.6 1453.81,163.4 1453.56,163.4 M1446.89,167.03 C1446.58,167.03 1446.32,166.77 1446.32,166.45 C1446.32,166.14 1446.58,165.88 1446.89,165.88 C1447.21,165.88 1447.47,166.14 1447.47,166.45 C1447.47,166.77 1447.21,167.03 1446.89,167.03 M1453.56,166 L1448.3,166 C1448.11,165.41 1447.55,164.98 1446.89,164.98 C1446.24,164.98 1445.68,165.41 1445.49,166 L1444.11,166 C1443.86,166 1443.66,166.2 1443.66,166.45 C1443.66,166.7 1443.86,166.91 1444.11,166.91 L1445.49,166.91 C1445.68,167.5 1446.24,167.93 1446.89,167.93 C1447.55,167.93 1448.11,167.5 1448.3,166.91 L1453.56,166.91 C1453.81,166.91 1454.02,166.7 1454.02,166.45 C1454.02,166.2 1453.81,166 1453.56,166 M1454.93,168.35 C1454.93,168.53 1454.78,168.67 1454.61,168.67 L1443.07,168.67 C1442.89,168.67 1442.74,168.53 1442.74,168.35 L1442.74,161.95 C1442.74,161.78 1442.89,161.63 1443.07,161.63 L1454.61,161.63 C1454.78,161.63 1454.93,161.78 1454.93,161.95 L1454.93,168.35 M1454.61,160.73 L1443.07,160.73 C1442.39,160.73 1441.84,161.28 1441.84,161.95 L1441.84,168.35 C1441.84,169.02 1442.39,169.58 1443.07,169.58 L1454.61,169.58 C1455.28,169.58 1455.83,169.02 1455.83,168.35 L1455.83,161.95 C1455.83,161.28 1455.28,160.73 1454.61,160.73 M1441.5,177.43 L1440.22,179.64 C1440.11,179.84 1439.92,179.98 1439.7,180.04 C1439.48,180.1 1439.25,180.07 1439.05,179.96 C1438.85,179.85 1438.71,179.66 1438.65,179.44 C1438.59,179.21 1438.62,178.98 1438.73,178.78 L1440.01,176.57 C1440.17,176.29 1440.46,176.14 1440.76,176.14 C1440.91,176.14 1441.05,176.17 1441.19,176.25 C1441.6,176.49 1441.74,177.02 1441.5,177.43 M1440.57,175.24 L1440.57,175.09 C1440.57,174.84 1440.37,174.64 1440.12,174.64 C1439.87,174.64 1439.67,174.84 1439.67,175.09 L1439.67,175.61 C1439.56,175.7 1439.46,175.79 1439.37,175.91 C1439.24,175.72 1438.98,175.66 1438.77,175.78 C1438.56,175.9 1438.48,176.18 1438.61,176.39 L1438.84,176.79 L1438.34,177.65 L1437.75,177.65 C1437.5,177.65 1437.3,177.86 1437.3,178.1 C1437.3,178.35 1437.5,178.56 1437.75,178.56 L1437.84,178.56 C1437.79,178.69 1437.75,178.82 1437.73,178.96 L1437.24,179.25 C1437.02,179.37 1436.95,179.65 1437.07,179.86 C1437.16,180.01 1437.31,180.09 1437.46,180.09 C1437.54,180.09 1437.62,180.07 1437.69,180.03 L1437.87,179.93 C1437.95,180.13 1438.08,180.31 1438.23,180.46 L1438.09,180.72 C1437.96,180.94 1438.03,181.21 1438.25,181.34 C1438.32,181.38 1438.4,181.4 1438.48,181.4 C1438.63,181.4 1438.78,181.32 1438.87,181.17 L1439.01,180.92 C1439.16,180.96 1439.32,180.98 1439.47,180.98 C1439.53,180.98 1439.6,180.98 1439.66,180.97 L1439.66,181.12 C1439.66,181.37 1439.87,181.57 1440.12,181.57 C1440.37,181.57 1440.57,181.37 1440.57,181.12 L1440.57,180.6 C1440.68,180.51 1440.78,180.41 1440.87,180.3 C1440.95,180.43 1441.09,180.5 1441.24,180.5 C1441.31,180.5 1441.39,180.48 1441.46,180.44 C1441.68,180.31 1441.75,180.03 1441.63,179.82 L1441.4,179.42 L1441.89,178.56 L1442.48,178.56 C1442.73,178.56 1442.93,178.36 1442.93,178.11 C1442.93,177.86 1442.73,177.66 1442.48,177.66 L1442.4,177.66 C1442.45,177.52 1442.48,177.39 1442.5,177.25 L1443,176.97 C1443.21,176.84 1443.29,176.57 1443.16,176.35 C1443.04,176.13 1442.76,176.06 1442.54,176.18 L1442.37,176.28 C1442.28,176.09 1442.16,175.9 1442,175.75 L1442.15,175.49 C1442.27,175.28 1442.2,175 1441.98,174.88 C1441.77,174.75 1441.49,174.82 1441.36,175.04 L1441.22,175.3 C1441.01,175.23 1440.79,175.22 1440.57,175.24 M1431.56,177.49 C1430.98,177.49 1430.51,177.02 1430.51,176.44 C1430.51,175.86 1430.98,175.4 1431.56,175.4 C1432.14,175.4 1432.61,175.86 1432.61,176.44 C1432.61,177.02 1432.14,177.49 1431.56,177.49 M1431.56,174.49 C1430.48,174.49 1429.61,175.37 1429.61,176.44 C1429.61,177.52 1430.48,178.39 1431.56,178.39 C1432.64,178.39 1433.51,177.52 1433.51,176.44 C1433.51,175.37 1432.64,174.49 1431.56,174.49 M1432.86,161.12 C1433.58,161.12 1434.17,161.7 1434.17,162.42 C1434.17,163.14 1433.58,163.72 1432.86,163.72 C1432.14,163.72 1431.56,163.14 1431.56,162.42 C1431.56,161.7 1432.14,161.12 1432.86,161.12 M1432.86,164.63 C1434.08,164.63 1435.07,163.64 1435.07,162.42 C1435.07,161.2 1434.08,160.21 1432.86,160.21 C1431.64,160.21 1430.65,161.2 1430.65,162.42 C1430.65,163.64 1431.64,164.63 1432.86,164.63 M1438.76,154.51 C1439.27,154.51 1439.68,154.92 1439.68,155.43 C1439.68,155.93 1439.27,156.34 1438.76,156.34 C1438.26,156.34 1437.85,155.93 1437.85,155.43 C1437.85,154.92 1438.26,154.51 1438.76,154.51 M1438.76,157.25 C1439.77,157.25 1440.58,156.43 1440.58,155.43 C1440.58,154.42 1439.77,153.61 1438.76,153.61 C1437.76,153.61 1436.94,154.42 1436.94,155.43 C1436.94,156.43 1437.76,157.25 1438.76,157.25 M1436.98,175.84 C1436.98,176.09 1436.77,176.29 1436.52,176.29 C1436.27,176.29 1436.07,176.09 1436.07,175.84 C1436.07,175.59 1436.27,175.39 1436.52,175.39 C1436.77,175.39 1436.98,175.59 1436.98,175.84 M1436.7,159.77 C1436.7,159.52 1436.9,159.32 1437.15,159.32 C1437.4,159.32 1437.61,159.52 1437.61,159.77 C1437.61,160.02 1437.4,160.22 1437.15,160.22 C1436.9,160.22 1436.7,160.02 1436.7,159.77 M1429.15,169.76 C1429.15,170.01 1428.94,170.21 1428.69,170.21 C1428.44,170.21 1428.24,170.01 1428.24,169.76 C1428.24,169.51 1428.44,169.31 1428.69,169.31 C1428.94,169.31 1429.15,169.51 1429.15,169.76 M1448.84,174.88 C1443.47,174.88 1439.11,170.51 1439.11,165.15 C1439.11,159.79 1443.47,155.43 1448.84,155.43 C1454.2,155.43 1458.56,159.79 1458.56,165.15 C1458.56,170.51 1454.2,174.88 1448.84,174.88 M1437.82,182.47 L1437.79,182.47 C1430.95,182.45 1425.39,176.87 1425.41,170.03 C1425.42,165.74 1428.35,161.83 1431.19,158.06 C1432.06,156.9 1432.95,155.7 1433.73,154.54 L1437.87,148.31 L1441.99,154.56 C1442.31,155.05 1442.68,155.58 1443.12,156.19 C1440.17,158.08 1438.21,161.39 1438.21,165.15 C1438.21,171.01 1442.97,175.78 1448.83,175.78 C1446.7,179.87 1442.46,182.47 1437.82,182.47 M1448.84,154.52 C1447.06,154.52 1445.38,154.96 1443.9,155.74 C1443.45,155.1 1443.07,154.56 1442.74,154.06 L1438.25,147.24 C1438.17,147.11 1438.03,147.04 1437.88,147.04 L1437.87,147.04 C1437.72,147.04 1437.58,147.11 1437.5,147.24 L1432.98,154.04 C1432.21,155.18 1431.36,156.31 1430.46,157.51 C1427.54,161.41 1424.52,165.44 1424.51,170.03 C1424.49,177.37 1430.45,183.36 1437.79,183.37 L1437.82,183.37 C1442.98,183.37 1447.67,180.39 1449.87,175.73 C1455.25,175.21 1459.47,170.66 1459.47,165.15 C1459.47,159.29 1454.7,154.52 1448.84,154.52" fill="#006838"/>
</g>
</svg>
