<svg xmlns="http://www.w3.org/2000/svg" viewBox="0 0 24.57 27.23" fill="none" aria-hidden="true">
<g transform="translate(-40.73,-332.31)">
<path d="M52.69,348.93 C51.94,348.93 51.33,348.32 51.33,347.57 C51.33,346.81 51.94,346.2 52.69,346.2 C53.44,346.2 54.05,346.81 54.05,347.57 C54.05,348.32 53.44,348.93 52.69,348.93 M53.14,345.37 L53.14,343.27 C53.14,343.02 52.94,342.82 52.69,342.82 C52.44,342.82 52.24,343.02 52.24,343.27 L52.24,345.37 C51.18,345.58 50.43,346.5 50.42,347.58 C50.42,348.02 50.55,348.45 50.79,348.82 L48.62,350.99 C48.44,351.17 48.44,351.45 48.62,351.63 C48.62,351.63 48.62,351.63 48.62,351.63 C48.8,351.81 49.08,351.81 49.26,351.64 C49.26,351.64 49.26,351.64 49.27,351.63 L51.44,349.46 C51.81,349.71 52.24,349.84 52.68,349.83 C53.93,349.78 54.9,348.73 54.85,347.48 C54.81,346.47 54.11,345.61 53.13,345.37 L53.14,345.37" fill="#F8A51A"/>
<path d="M60.23,338.26 C60.06,338.33 59.95,338.52 59.96,338.71 L60.13,340.3 L58.63,340.3 L58.8,338.71 C58.82,338.52 58.71,338.34 58.53,338.26 C57.76,337.92 57.26,337.16 57.26,336.31 C57.26,335.77 57.47,335.24 57.85,334.84 L57.85,335.44 C57.86,336.28 58.54,336.96 59.38,336.96 C60.22,336.97 60.91,336.28 60.92,335.44 L60.92,334.85 C61.72,335.69 61.7,337.03 60.85,337.84 C60.67,338.02 60.46,338.16 60.23,338.26 M60.64,333.56 C60.42,333.46 60.15,333.56 60.04,333.79 C60.01,333.85 60,333.91 60,333.98 L60,335.44 C60,335.61 59.93,335.77 59.81,335.89 C59.69,336.02 59.52,336.08 59.35,336.07 C59.02,336.06 58.75,335.78 58.76,335.44 L58.76,333.98 C58.76,333.82 58.68,333.68 58.55,333.59 C58.42,333.5 58.24,333.49 58.1,333.56 C56.58,334.26 55.91,336.06 56.61,337.58 C56.87,338.15 57.3,338.62 57.85,338.94 L57.66,340.71 C57.64,340.84 57.69,340.97 57.77,341.06 C57.86,341.16 57.98,341.21 58.11,341.21 L60.64,341.21 C60.77,341.21 60.89,341.16 60.98,341.06 C61.06,340.97 61.11,340.84 61.09,340.71 L60.91,338.94 C62.35,338.09 62.84,336.24 62,334.79 C61.68,334.25 61.21,333.82 60.64,333.56" fill="#F8A51A"/>
<path d="M64.21,340.93 C64.21,341.34 63.88,341.68 63.46,341.69 L61.19,341.69 C61.03,341.68 60.88,341.77 60.8,341.91 L59.36,344.4 L57.92,341.91 C57.84,341.77 57.69,341.68 57.53,341.69 L55.31,341.69 C54.89,341.69 54.55,341.35 54.55,340.93 L54.55,333.97 C54.55,333.55 54.89,333.22 55.31,333.22 L63.47,333.22 C63.89,333.22 64.23,333.56 64.23,333.97 L64.21,340.93 M52.69,358.62 C46.59,358.5 41.75,353.45 41.87,347.35 C41.99,341.43 46.76,336.65 52.69,336.53 C53.02,336.53 53.33,336.53 53.64,336.58 L53.64,338.39 C53.33,338.36 53.01,338.34 52.69,338.34 C47.6,338.33 43.46,342.46 43.45,347.56 C43.45,347.56 43.45,347.57 43.45,347.57 C43.45,352.67 47.59,356.81 52.69,356.81 L52.69,356.81 C57.79,356.81 61.92,352.68 61.93,347.58 C61.93,346.16 61.6,344.76 60.97,343.5 L61.48,342.59 L62.54,342.59 C65.3,348.02 63.13,354.67 57.69,357.43 C56.14,358.21 54.43,358.62 52.69,358.62 M60.41,344.43 C60.75,345.29 60.96,346.2 61.01,347.12 L59.97,347.12 C59.72,347.12 59.51,347.33 59.51,347.58 C59.51,347.83 59.72,348.03 59.97,348.03 L61,348.03 C60.9,349.92 60.16,351.72 58.89,353.13 L58.16,352.4 C57.98,352.23 57.69,352.23 57.52,352.4 C57.34,352.58 57.34,352.86 57.51,353.04 C57.52,353.04 57.52,353.04 57.52,353.05 L58.25,353.78 C56.84,355.05 55.04,355.8 53.14,355.9 L53.14,354.86 C53.14,354.6 52.94,354.4 52.69,354.4 C52.44,354.4 52.24,354.6 52.24,354.86 L52.24,355.9 C50.34,355.8 48.54,355.06 47.14,353.79 L47.87,353.06 C48.05,352.88 48.05,352.59 47.87,352.41 C47.69,352.24 47.4,352.24 47.22,352.41 L46.49,353.13 C45.22,351.72 44.48,349.92 44.38,348.03 L45.41,348.03 C45.66,348.03 45.87,347.83 45.87,347.58 C45.87,347.33 45.66,347.12 45.41,347.12 L44.38,347.12 C44.48,345.23 45.22,343.43 46.49,342.02 L47.22,342.74 C47.31,342.83 47.42,342.87 47.55,342.87 C47.8,342.87 48,342.67 48,342.42 C48,342.3 47.95,342.19 47.87,342.1 L47.13,341.38 C48.54,340.11 50.34,339.37 52.24,339.27 L52.24,340.31 C52.24,340.56 52.44,340.76 52.69,340.76 C52.94,340.76 53.14,340.56 53.14,340.31 L53.14,339.27 C53.31,339.27 53.48,339.29 53.64,339.31 L53.64,340.93 C53.64,341.85 54.39,342.59 55.31,342.59 L57.29,342.59 L58.99,345.54 C59.11,345.75 59.39,345.83 59.61,345.71 C59.68,345.67 59.74,345.61 59.78,345.54 L60.41,344.43 M63.46,332.31 L55.29,332.31 C54.37,332.31 53.63,333.05 53.63,333.97 L53.63,335.67 C53.32,335.64 53,335.62 52.68,335.62 C46.07,335.63 40.73,340.99 40.74,347.59 C40.74,354.19 46.1,359.54 52.7,359.53 C59.31,359.53 64.65,354.17 64.64,347.56 C64.64,345.84 64.27,344.14 63.55,342.57 C64.42,342.53 65.11,341.81 65.12,340.93 L65.12,333.97 C65.12,333.06 64.38,332.31 63.46,332.31 C63.46,332.31 63.46,332.31 63.46,332.31" fill="#F8A51A"/>
</g>
</svg>
