<svg xmlns="http://www.w3.org/2000/svg" viewBox="0 0 22.84 23.51" fill="none" aria-hidden="true">
<g transform="translate(-43.05,-452.34)">
<path d="M62.57,452.34 C62.57,452.34 60.63,454.22 58.54,454.98 C43.05,460.58 49.58,471.5 49.8,471.54 C49.8,471.54 50.66,470.02 51.84,469.16 C59.29,463.69 60.8,457.38 60.8,457.38 C60.8,457.38 59.13,464.97 52.5,469.69 C51.04,470.73 50.05,473.29 49.63,475.85 C49.63,475.85 50.67,475.44 51.11,475.32 C51.29,474.19 51.65,473.1 52.27,472.13 C61.53,473.23 64.56,465.77 64.96,463.17 C65.89,457.02 62.57,452.34 62.57,452.34" fill="#F8A51A"/>
</g>
</svg>
