<svg xmlns="http://www.w3.org/2000/svg" viewBox="0 0 42.62 27.46" fill="none" aria-hidden="true">
<g transform="translate(-575.36,-372.77)">
<path d="M591.49,399.13 C592.89,398.4 594.06,397.41 594.98,396.16 C595.9,394.91 596.59,393.45 597.05,391.79 C597.5,390.12 597.73,388.36 597.73,386.5 C597.73,384.73 597.53,383.02 597.12,381.37 C596.72,379.72 596.07,378.26 595.18,376.98 C594.28,375.7 593.13,374.68 591.71,373.92 C590.28,373.15 588.56,372.77 586.52,372.77 C584.69,372.77 583.08,373.13 581.69,373.86 C580.3,374.59 579.13,375.57 578.2,376.83 C577.26,378.08 576.56,379.54 576.08,381.22 C575.6,382.89 575.36,384.68 575.36,386.6 C575.36,388.43 575.58,390.18 576.02,391.82 C576.46,393.47 577.14,394.92 578.06,396.17 C578.98,397.41 580.14,398.4 581.55,399.13 C582.96,399.86 584.62,400.23 586.54,400.23 C588.44,400.23 590.09,399.86 591.49,399.13 M584.35,394.07 C583.71,393.68 583.15,393.14 582.7,392.44 C582.24,391.74 581.89,390.89 581.65,389.89 C581.41,388.89 581.29,387.77 581.29,386.54 C581.29,385.29 581.41,384.17 581.66,383.16 C581.91,382.15 582.26,381.29 582.72,380.58 C583.17,379.87 583.72,379.32 584.36,378.93 C585.01,378.55 585.72,378.36 586.51,378.36 C587.35,378.36 588.1,378.55 588.76,378.94 C589.41,379.34 589.97,379.89 590.41,380.6 C590.86,381.31 591.21,382.17 591.44,383.17 C591.68,384.17 591.8,385.28 591.8,386.5 C591.8,387.73 591.68,388.85 591.43,389.86 C591.19,390.87 590.84,391.73 590.4,392.43 C589.95,393.14 589.4,393.68 588.75,394.07 C588.1,394.45 587.37,394.65 586.54,394.65 C585.73,394.65 585,394.45 584.35,394.07" fill="none" stroke="#006838" stroke-width="1.00" stroke-linecap="butt" stroke-linejoin="miter"/>
<path d="M612.3,399.48 C613.49,399 614.51,398.36 615.35,397.54 C616.19,396.71 616.84,395.75 617.3,394.65 C617.75,393.54 617.98,392.36 617.98,391.1 C617.98,389.83 617.75,388.67 617.31,387.62 C616.86,386.57 616.26,385.66 615.51,384.9 C614.76,384.15 613.9,383.56 612.94,383.14 C611.97,382.72 610.96,382.52 609.92,382.52 C609.62,382.52 609.31,382.56 609.01,382.64 C608.7,382.72 608.41,382.84 608.14,382.98 L614.22,373.41 L607.41,373.41 L601.69,382.79 C601.12,383.71 600.65,384.53 600.25,385.26 C599.86,385.99 599.54,386.67 599.3,387.3 C599.06,387.94 598.88,388.56 598.77,389.16 C598.66,389.76 598.6,390.41 598.6,391.1 C598.6,392.36 598.82,393.54 599.27,394.65 C599.72,395.75 600.37,396.71 601.21,397.54 C602.05,398.36 603.07,399 604.27,399.48 C605.46,399.95 606.8,400.19 608.29,400.19 C609.77,400.19 611.11,399.95 612.3,399.48 M606.91,394.42 C606.5,394.25 606.14,394.01 605.85,393.71 C605.55,393.41 605.33,393.05 605.16,392.62 C605,392.19 604.92,391.71 604.92,391.18 C604.92,390.72 605,390.27 605.15,389.84 C605.3,389.41 605.51,389.03 605.8,388.71 C606.09,388.38 606.44,388.12 606.86,387.93 C607.28,387.73 607.76,387.64 608.31,387.64 C608.82,387.64 609.28,387.72 609.69,387.9 C610.1,388.07 610.45,388.31 610.74,388.62 C611.03,388.93 611.25,389.3 611.41,389.74 C611.57,390.17 611.66,390.65 611.66,391.18 C611.66,392.23 611.35,393.08 610.74,393.71 C610.13,394.35 609.32,394.67 608.31,394.67 C607.8,394.67 607.33,394.58 606.91,394.42" fill="none" stroke="#006838" stroke-width="1.00" stroke-linecap="butt" stroke-linejoin="miter"/>
</g>
</svg>
