<svg xmlns="http://www.w3.org/2000/svg" viewBox="0 0 22.95 22.95" fill="none" aria-hidden="true">
<g transform="translate(-232.08,-264.14)">
<path d="M252.72,275.62 C252.72,280.66 248.63,284.75 243.59,284.75 C238.54,284.75 234.46,280.66 234.46,275.62 C234.46,270.58 238.54,266.49 243.59,266.49 C248.63,266.49 252.72,270.58 252.72,275.62" fill="#FFFFFF" fill-rule="evenodd"/>
<path d="M250.05,276.15 L240.18,282.32 C239.66,282.65 239.03,282.11 239.28,281.55 L241.78,275.87 C241.85,275.71 241.85,275.53 241.78,275.37 L239.28,269.69 C239.03,269.13 239.66,268.59 240.18,268.91 L250.05,275.09 C250.43,275.33 250.43,275.9 250.05,276.15 M243.55,264.14 C237.22,264.14 232.08,269.28 232.08,275.62 C232.08,281.96 237.22,287.09 243.55,287.09 C249.89,287.09 255.03,281.96 255.03,275.62 C255.03,269.28 249.89,264.14 243.55,264.14" fill="#006838"/>
</g>
</svg>
