<svg xmlns="http://www.w3.org/2000/svg" viewBox="0 0 28.40 14.12" fill="none" aria-hidden="true">
<g transform="translate(-78.97,-518.02)">
<path d="M105.09,531.12 C104.41,531.12 103.85,530.57 103.84,529.89 C103.89,529.33 104.48,528.56 104.95,527.94 C104.99,527.87 105.04,527.81 105.09,527.75 C105.15,527.82 105.2,527.9 105.26,527.98 C105.75,528.63 106.3,529.36 106.35,529.89 C106.34,530.57 105.78,531.12 105.09,531.12 M105.53,526.58 C105.43,526.43 105.27,526.34 105.09,526.34 C104.92,526.34 104.76,526.43 104.66,526.58 C104.52,526.8 104.33,527.05 104.13,527.32 C103.54,528.09 102.88,528.96 102.81,529.82 C102.81,529.84 102.81,529.85 102.81,529.86 C102.81,531.12 103.83,532.15 105.09,532.15 C106.35,532.15 107.38,531.12 107.38,529.86 C107.38,529.85 107.38,529.84 107.38,529.82 C107.31,529 106.69,528.17 106.09,527.36 C105.88,527.08 105.68,526.82 105.53,526.58 M80.58,522.27 C80.1,521.8 80.1,521.03 80.58,520.55 C81.05,520.08 81.82,520.08 82.3,520.55 L84.25,522.5 L84.21,522.5 C83.47,522.5 82.87,523.1 82.87,523.84 L82.87,524.56 L80.58,522.27 M88.13,521.43H89.64V522.5H88.13Z M86.74,519.05H91.02V520.4H86.74Z M95.35,525.8 C95.49,525.93 95.69,525.97 95.87,525.91 L104.15,523.11 L105.22,523.97 L104.87,524.32 L104.16,523.99 C103.99,523.91 103.79,523.92 103.64,524.03 L94.45,530.5 L84.21,530.5 C84.04,530.5 83.89,530.36 83.89,530.19 L83.89,523.84 C83.89,523.67 84.04,523.53 84.21,523.53 L92.89,523.53 L95.35,525.8 M82.87,530.19 C82.87,530.93 83.47,531.53 84.21,531.53 L94.61,531.53 C94.72,531.53 94.82,531.5 94.91,531.44 L103.99,525.04 L104.75,525.4 C104.95,525.49 105.18,525.46 105.33,525.31 L106.36,524.3 C106.46,524.2 106.52,524.06 106.51,523.91 C106.5,523.76 106.43,523.63 106.32,523.53 L104.57,522.13 C104.44,522.02 104.25,521.99 104.09,522.05 L95.83,524.84 L93.44,522.64 C93.34,522.55 93.22,522.5 93.09,522.5 L90.66,522.5 L90.66,521.43 L91.54,521.43 C91.82,521.43 92.05,521.2 92.05,520.92 L92.05,518.54 C92.05,518.26 91.82,518.02 91.54,518.02 L86.23,518.02 C85.95,518.02 85.71,518.26 85.71,518.54 L85.71,520.92 C85.71,521.2 85.95,521.43 86.23,521.43 L87.1,521.43 L87.1,522.5 L85.7,522.5 L83.02,519.83 C82.15,518.95 80.72,518.95 79.85,519.83 C78.97,520.7 78.97,522.13 79.85,523 L82.87,526.02 L82.87,530.19 L82.87,530.19" fill="#CE162D"/>
</g>
</svg>
