<svg xmlns="http://www.w3.org/2000/svg" viewBox="0 0 20.92 25.54" fill="none" aria-hidden="true">
<g transform="translate(-82.88,-469.37)">
<path d="M102.51,484.54 C102.51,488.95 94.88,492.8 93.36,493.52 C91.84,492.8 84.21,488.95 84.21,484.54 L84.21,474.76 L93.36,470.71 L102.51,474.76 L102.51,484.54 M103.42,473.75 L93.62,469.44 C93.45,469.37 93.27,469.37 93.1,469.44 L83.3,473.75 C83.06,473.86 82.91,474.09 82.91,474.34 L82.91,484.54 C82.88,490.25 92.68,494.68 93.09,494.83 C93.26,494.9 93.45,494.9 93.62,494.83 C94.03,494.64 103.8,490.25 103.8,484.54 L103.8,474.34 C103.8,474.09 103.65,473.86 103.42,473.75" fill="#CE162D"/>
<path d="M93.36,477.1 C96.14,477.13 98.37,479.41 98.34,482.19 C98.31,484.98 96.02,487.21 93.24,487.17 C90.48,487.14 88.26,484.89 88.26,482.13 C88.28,479.33 90.56,477.08 93.36,477.1 M86.97,482.13 C86.99,485.64 89.85,488.47 93.36,488.46 C96.86,488.43 99.66,485.56 99.63,482.07 C99.6,478.57 96.74,475.77 93.24,475.8 C89.77,475.83 86.97,478.66 86.97,482.13" fill="#CE162D"/>
<path d="M90.21,483.36 L91.81,484.89 C92.07,485.13 92.47,485.13 92.72,484.89 L96.49,481.17 C96.73,480.91 96.73,480.51 96.49,480.25 C96.23,480.01 95.83,480.01 95.58,480.25 L92.25,483.53 L91.12,482.41 C90.89,482.12 90.47,482.07 90.18,482.3 C89.89,482.52 89.84,482.94 90.07,483.23 C90.11,483.28 90.15,483.32 90.21,483.36" fill="#CE162D"/>
</g>
</svg>
